<svg viewBox="0 0 612 555" xmlns="http://www.w3.org/2000/svg" fill-rule="evenodd" clip-rule="evenodd" stroke-linejoin="round" stroke-miterlimit="1.414"><path fill="none" d="M0 0h612v554.342H0z"/><clipPath id="a"><path d="M0 0h612v554.342H0z"/></clipPath><g clip-path="url(#a)"><g fill-rule="nonzero"><path d="M45.457 458.851h26.614c5.731 7.106 8.597 14.602 8.597 22.488 0 9.169-3.359 16.871-10.075 23.106-6.717 6.236-14.981 9.353-24.792 9.353-12.745 0-23.565-4.837-32.46-14.51C4.447 489.614 0 477.831 0 463.94c0-13.938 4.527-25.537 13.582-34.798 9.055-9.261 20.368-13.892 33.938-13.892 4.631 0 9.766.94 15.405 2.82v27.921c-4.401-2.064-8.413-3.095-12.035-3.095-6.556 0-11.909 2.04-16.058 6.12-4.149 4.081-6.223 9.376-6.223 15.886 0 6.648 1.925 11.921 5.776 15.818 3.851 3.897 9.055 5.845 15.611 5.845 4.172 0 6.258-1.215 6.258-3.645 0-1.834-1.375-2.751-4.126-2.751h-6.671v-21.318zM90.089 417.588h25.72v93.872h-25.72zM163.399 441.452c9.719 0 18.052 3.495 24.998 10.487 6.945 6.992 10.418 15.37 10.418 25.136 0 9.903-3.518 18.339-10.556 25.307-7.037 6.969-15.531 10.453-25.479 10.453-9.949 0-18.454-3.495-25.514-10.487-7.061-6.992-10.591-15.416-10.591-25.273 0-10.041 3.53-18.488 10.591-25.342 7.06-6.854 15.771-10.281 26.133-10.281zm-.688 25.376c-2.751 0-5.089.997-7.015 2.991-1.925 1.995-2.888 4.436-2.888 7.325 0 2.842.974 5.272 2.923 7.289 1.948 2.017 4.275 3.026 6.98 3.026 2.751 0 5.1-1.009 7.049-3.026 1.948-2.017 2.923-4.447 2.923-7.289 0-2.889-.963-5.33-2.889-7.325-1.925-1.994-4.286-2.991-7.083-2.991zM247.161 442.208v27.508c-1.788-1.008-3.416-1.513-4.883-1.513-4.676 0-7.014 3.576-7.014 10.729v32.528h-25.72v-37.48c0-9.903 2.705-17.8 8.114-23.691 5.41-5.892 12.631-8.837 21.663-8.837 2.017 0 4.631.252 7.84.756zM263.597 541.513v-22.351c3.484 1.467 6.533 2.201 9.147 2.201 8.344 0 13.754-4.699 16.229-14.098-4.493 2.659-8.894 3.989-13.204 3.989-6.372 0-11.622-2.373-15.748-7.118-4.126-4.745-6.189-10.786-6.189-18.121v-43.119h25.72v36.861c0 4.08 1.696 6.12 5.089 6.12 3.255 0 4.883-2.246 4.883-6.739v-36.242h25.72v61.206c0 11.415-3.21 20.631-9.628 27.645-7.657 8.344-16.918 12.516-27.783 12.516-4.768 0-9.514-.916-14.236-2.75z" fill="#0078c4"/><path d="M413.654 417.588l-24.757 42.569 24.62 51.303h-31.36l-21.25-51.853 24.07-42.019h28.677zm-53.572 0v93.872h-27.921v-93.872h27.921zM446.802 442.896v68.564h-25.721v-68.564h25.721zm-12.792-30.603c3.485 0 6.499 1.226 9.044 3.679 2.544 2.453 3.816 5.353 3.816 8.7 0 3.576-1.203 6.51-3.61 8.802-2.407 2.293-5.49 3.439-9.25 3.439-3.759 0-6.842-1.146-9.249-3.439-2.407-2.292-3.611-5.226-3.611-8.802 0-3.347 1.272-6.247 3.817-8.7 2.544-2.453 5.559-3.679 9.043-3.679zM504.156 417.588h25.72v57.149c0 10.499-2.751 19.049-8.252 25.651-3.164 3.805-7.187 6.831-12.069 9.078-4.883 2.246-9.892 3.369-15.027 3.369-10.224 0-18.843-3.438-25.857-10.315-7.015-6.877-10.522-15.313-10.522-25.308 0-9.673 3.484-18.04 10.453-25.101 6.969-7.06 15.221-10.591 24.757-10.591 1.513 0 3.805.138 6.877.413v28.333c-2.109-1.65-4.218-2.475-6.327-2.475-2.659 0-4.94.974-6.842 2.922-1.903 1.949-2.854 4.299-2.854 7.049 0 2.66.985 4.94 2.957 6.843 1.971 1.903 4.332 2.854 7.083 2.854 6.602 0 9.903-4.562 9.903-13.685v-56.186zM585.649 417.588h25.72v57.149c0 10.499-2.751 19.049-8.252 25.651-3.164 3.805-7.187 6.831-12.069 9.078-4.883 2.246-9.892 3.369-15.027 3.369-10.224 0-18.843-3.438-25.857-10.315-7.015-6.877-10.522-15.313-10.522-25.308 0-9.673 3.484-18.04 10.453-25.101 6.969-7.06 15.221-10.591 24.757-10.591 1.513 0 3.805.138 6.877.413v28.333c-2.109-1.65-4.218-2.475-6.327-2.475-2.659 0-4.94.974-6.842 2.922-1.903 1.949-2.854 4.299-2.854 7.049 0 2.66.985 4.94 2.957 6.843 1.971 1.903 4.332 2.854 7.083 2.854 6.602 0 9.903-4.562 9.903-13.685v-56.186z" fill="#ffa817"/><g fill="#0b0a00"><path d="M341.586 541.169h-2.159v-19.122h-7.108v-1.901h16.374v1.901h-7.107v19.122zM368.605 533.152c-.06-1.307-.485-2.391-1.275-3.252-.789-.861-1.914-1.291-3.373-1.291-.68 0-1.31.123-1.89.371a5.031 5.031 0 0 0-2.579 2.464 4.66 4.66 0 0 0-.45 1.708h9.567zm2.069.653v.445c0 .159-.01.327-.03.505h-11.636c.02.693.16 1.346.42 1.96.26.613.62 1.148 1.08 1.603.46.455.999.817 1.619 1.084.62.267 1.29.401 2.01.401 1.059 0 1.974-.243 2.744-.728.769-.485 1.354-1.044 1.754-1.677l1.529 1.187c-.839 1.049-1.764 1.802-2.774 2.257a7.823 7.823 0 0 1-3.253.683 7.529 7.529 0 0 1-2.894-.549 6.788 6.788 0 0 1-2.295-1.53 7.246 7.246 0 0 1-1.514-2.316c-.37-.89-.555-1.86-.555-2.909 0-1.05.18-2.02.54-2.91.36-.891.86-1.663 1.499-2.316a6.903 6.903 0 0 1 2.25-1.53 7.042 7.042 0 0 1 2.789-.549c1.099 0 2.069.183 2.909.549.839.367 1.539.862 2.099 1.485.56.624.985 1.351 1.274 2.183.29.831.435 1.722.435 2.672zM394.156 530.45c-.34-.535-.835-.975-1.484-1.322a4.432 4.432 0 0 0-2.115-.519c-.819 0-1.559.143-2.219.43a5.015 5.015 0 0 0-1.694 1.188 5.218 5.218 0 0 0-1.08 1.781 6.391 6.391 0 0 0-.375 2.213c0 .791.125 1.524.375 2.197s.605 1.262 1.065 1.766c.46.505 1.019.901 1.679 1.188.66.287 1.4.431 2.219.431.9 0 1.66-.169 2.28-.505a4.66 4.66 0 0 0 1.529-1.307l1.529 1.129a6.675 6.675 0 0 1-2.204 1.752c-.869.435-1.914.653-3.134.653-1.139 0-2.169-.183-3.089-.549a6.855 6.855 0 0 1-2.354-1.53 6.912 6.912 0 0 1-1.514-2.316c-.36-.89-.54-1.86-.54-2.909 0-1.05.18-2.02.54-2.91a6.912 6.912 0 0 1 1.514-2.316 6.855 6.855 0 0 1 2.354-1.53c.92-.366 1.95-.549 3.089-.549.94 0 1.895.203 2.864.609.97.406 1.755 1.004 2.354 1.796l-1.589 1.129zM410.2 529.559c.38-.812 1.01-1.455 1.89-1.93a5.842 5.842 0 0 1 2.819-.713c1.779 0 3.114.525 4.003 1.574.89 1.049 1.335 2.435 1.335 4.157v8.522h-2.039v-7.691c0-.732-.06-1.395-.18-1.989-.12-.594-.325-1.104-.615-1.529a2.925 2.925 0 0 0-1.17-.995c-.489-.238-1.104-.356-1.844-.356-.54 0-1.065.109-1.574.326-.51.218-.965.55-1.365.995-.4.445-.72 1.01-.96 1.692-.24.683-.36 1.49-.36 2.42v7.127h-2.039v-22.448h2.039v10.838h.06zM436.351 527.272a26.58 26.58 0 0 1 .12 2.376h.06c.4-.812 1.05-1.47 1.95-1.975a5.742 5.742 0 0 1 2.849-.757c1.779 0 3.113.525 4.003 1.574.89 1.049 1.335 2.435 1.335 4.157v8.522h-2.04v-7.691c0-.732-.06-1.395-.18-1.989-.119-.594-.324-1.104-.614-1.529a2.925 2.925 0 0 0-1.17-.995c-.49-.238-1.104-.356-1.844-.356-.54 0-1.065.109-1.575.326-.51.218-.964.55-1.364.995-.4.445-.72 1.01-.96 1.692-.24.683-.36 1.49-.36 2.42v7.127h-2.039v-10.838a44.968 44.968 0 0 0-.12-3.059h1.949zM474.888 534.221c0 1.049-.185 2.019-.555 2.909a7.003 7.003 0 0 1-1.544 2.316 7.011 7.011 0 0 1-2.37 1.53c-.919.366-1.929.549-3.029.549-1.079 0-2.079-.183-2.998-.549a7.011 7.011 0 0 1-2.37-1.53 7.003 7.003 0 0 1-1.544-2.316c-.37-.89-.555-1.86-.555-2.909 0-1.05.185-2.02.555-2.91a7.003 7.003 0 0 1 1.544-2.316 7.011 7.011 0 0 1 2.37-1.53c.919-.366 1.919-.549 2.998-.549 1.1 0 2.11.183 3.029.549.92.367 1.71.876 2.37 1.53a7.003 7.003 0 0 1 1.544 2.316c.37.89.555 1.86.555 2.91zm-2.159 0c0-.772-.125-1.5-.375-2.183a5.325 5.325 0 0 0-1.065-1.781 5.042 5.042 0 0 0-1.679-1.203c-.66-.297-1.4-.445-2.22-.445-.819 0-1.554.148-2.204.445a5.073 5.073 0 0 0-1.664 1.203 5.325 5.325 0 0 0-1.065 1.781 6.302 6.302 0 0 0-.375 2.183c0 .772.125 1.499.375 2.182.25.683.605 1.277 1.065 1.781.46.505 1.014.901 1.664 1.188.65.287 1.385.431 2.204.431.82 0 1.56-.144 2.22-.431a4.868 4.868 0 0 0 1.679-1.188 5.325 5.325 0 0 0 1.065-1.781c.25-.683.375-1.41.375-2.182zM488.323 518.721h2.039v22.448h-2.039zM518.763 534.221c0 1.049-.185 2.019-.555 2.909a6.99 6.99 0 0 1-1.545 2.316 6.997 6.997 0 0 1-2.369 1.53c-.92.366-1.929.549-3.029.549-1.079 0-2.079-.183-2.999-.549a7.017 7.017 0 0 1-2.369-1.53 6.972 6.972 0 0 1-1.544-2.316c-.37-.89-.555-1.86-.555-2.909 0-1.05.185-2.02.555-2.91a6.972 6.972 0 0 1 1.544-2.316 7.017 7.017 0 0 1 2.369-1.53c.92-.366 1.92-.549 2.999-.549 1.1 0 2.109.183 3.029.549.92.367 1.71.876 2.369 1.53a6.99 6.99 0 0 1 1.545 2.316c.37.89.555 1.86.555 2.91zm-2.16 0c0-.772-.125-1.5-.375-2.183a5.306 5.306 0 0 0-1.064-1.781 5.036 5.036 0 0 0-1.68-1.203c-.659-.297-1.399-.445-2.219-.445-.82 0-1.554.148-2.204.445a5.063 5.063 0 0 0-1.664 1.203 5.325 5.325 0 0 0-1.065 1.781 6.302 6.302 0 0 0-.375 2.183c0 .772.125 1.499.375 2.182.25.683.605 1.277 1.065 1.781a4.885 4.885 0 0 0 1.664 1.188c.65.287 1.384.431 2.204.431.82 0 1.56-.144 2.219-.431a4.863 4.863 0 0 0 1.68-1.188 5.306 5.306 0 0 0 1.064-1.781c.25-.683.375-1.41.375-2.182zM532.888 543.96c.559.712 1.324 1.316 2.294 1.811a6.667 6.667 0 0 0 3.074.742c.999 0 1.849-.143 2.549-.43.7-.287 1.264-.678 1.694-1.173.43-.495.745-1.074.945-1.737.2-.663.3-1.371.3-2.123v-2.613h-.06c-.54.871-1.305 1.544-2.294 2.019-.99.475-1.995.713-3.014.713-1.1 0-2.095-.179-2.984-.535a6.752 6.752 0 0 1-2.279-1.47 6.537 6.537 0 0 1-1.47-2.241 7.498 7.498 0 0 1-.525-2.821c0-.99.175-1.92.525-2.791.35-.871.84-1.633 1.47-2.287a6.792 6.792 0 0 1 2.279-1.544c.889-.376 1.884-.564 2.984-.564 1.019 0 2.019.238 2.999.713a5.5 5.5 0 0 1 2.309 2.049h.06v-2.406h2.039v13.778c0 .752-.105 1.554-.315 2.405-.21.851-.6 1.633-1.169 2.346-.57.712-1.345 1.306-2.325 1.781-.979.475-2.249.713-3.808.713-1.3 0-2.539-.248-3.719-.742a8.973 8.973 0 0 1-3.029-2.049l1.47-1.544zm.389-9.918c0 .733.12 1.426.36 2.079.24.653.585 1.227 1.035 1.722a4.81 4.81 0 0 0 1.664 1.173c.66.287 1.41.43 2.25.43a5.88 5.88 0 0 0 2.159-.386 4.952 4.952 0 0 0 1.709-1.098 5.043 5.043 0 0 0 1.125-1.708c.27-.663.405-1.4.405-2.212a5.427 5.427 0 0 0-1.53-3.8 5.491 5.491 0 0 0-1.709-1.188 5.2 5.2 0 0 0-2.159-.445c-.84 0-1.59.148-2.25.445a4.982 4.982 0 0 0-1.664 1.188 5.196 5.196 0 0 0-1.035 1.722 5.977 5.977 0 0 0-.36 2.078zM562.157 541.169h-2.039v-13.897h2.039v13.897zm.42-19.241c0 .415-.15.757-.45 1.024-.299.267-.629.401-.989.401s-.69-.134-.99-.401a1.31 1.31 0 0 1-.45-1.024c0-.416.15-.757.45-1.025.3-.267.63-.4.99-.4s.69.133.989.4c.3.268.45.609.45 1.025zM587.289 533.152c-.06-1.307-.485-2.391-1.275-3.252-.79-.861-1.914-1.291-3.374-1.291-.68 0-1.309.123-1.889.371a5.003 5.003 0 0 0-2.579 2.464 4.66 4.66 0 0 0-.45 1.708h9.567zm2.069.653v.445c0 .159-.01.327-.03.505h-11.636c.02.693.16 1.346.42 1.96a4.96 4.96 0 0 0 1.079 1.603c.46.455 1 .817 1.62 1.084.62.267 1.289.401 2.009.401 1.06 0 1.974-.243 2.744-.728.77-.485 1.355-1.044 1.755-1.677l1.529 1.187c-.84 1.049-1.764 1.802-2.774 2.257a7.828 7.828 0 0 1-3.254.683 7.536 7.536 0 0 1-2.894-.549 6.793 6.793 0 0 1-2.294-1.53 7.213 7.213 0 0 1-1.514-2.316c-.37-.89-.555-1.86-.555-2.909 0-1.05.18-2.02.54-2.91a7.014 7.014 0 0 1 1.499-2.316 6.91 6.91 0 0 1 2.249-1.53 7.049 7.049 0 0 1 2.789-.549c1.1 0 2.07.183 2.909.549.84.367 1.54.862 2.1 1.485a6.378 6.378 0 0 1 1.274 2.183c.29.831.435 1.722.435 2.672zM610.201 530.568c-.3-.574-.755-1.044-1.365-1.41-.61-.366-1.304-.549-2.084-.549-.36 0-.72.039-1.08.118-.36.08-.68.208-.959.386-.28.179-.505.406-.675.683-.17.277-.255.604-.255.98 0 .653.27 1.153.81 1.5.539.346 1.389.638 2.549.876 1.659.336 2.884.826 3.673 1.469.79.644 1.185 1.51 1.185 2.598 0 .792-.155 1.46-.465 2.005-.31.544-.715.989-1.214 1.336a4.93 4.93 0 0 1-1.695.742 8.24 8.24 0 0 1-1.904.223 7.668 7.668 0 0 1-3.089-.653 5.713 5.713 0 0 1-2.459-2.049l1.619-1.188c.36.614.89 1.129 1.59 1.544a4.432 4.432 0 0 0 2.309.624c.44 0 .86-.04 1.259-.119.4-.079.75-.218 1.05-.416.3-.198.54-.45.72-.757.18-.307.27-.688.27-1.143 0-.732-.355-1.282-1.065-1.648-.71-.366-1.734-.708-3.074-1.024-.42-.099-.865-.223-1.334-.372a4.59 4.59 0 0 1-1.305-.653c-.4-.287-.73-.648-.99-1.084-.259-.435-.389-.979-.389-1.633 0-.712.14-1.321.419-1.826a3.66 3.66 0 0 1 1.125-1.247 5.048 5.048 0 0 1 1.604-.727 7.23 7.23 0 0 1 1.86-.238c.979 0 1.929.218 2.849.653.919.436 1.609 1.05 2.069 1.841l-1.559 1.158z"/></g></g><path d="M173.374 316.71c-36.242-31.915-56.759-79.858-56.759-135.617 0-101.609 89.937-184.337 197.153-180.995 39.826 1.241 73.889 14.214 100.337 35.495l-85.984 60.229a100.149 100.149 0 0 0-15.907-1.265c-52.905 0-95.857 41.282-95.857 92.129 0 47.531 37.531 86.703 85.641 91.611-18.346 15.121-50.272 37.628-128.624 38.413z" fill="#0078c4"/><path d="M359.605 139.156c-1.489-31.462-7.152-55.163-7.152-55.163l119.458 25.659c.262 11.704.831 24.543.62 38.889l42.119 3.5-1.554 68.98-45.717 5.129c-21.309 77.129-90.288 134.386-180.894 134.386-50.553 0-97.895-12.317-128.563-39.552 73.641 3.956 134.161-13.544 174.334-65.473 3.72-4.808 6.975-9.937 9.817-15.305l-56.115 6.294.622-113.413 73.025 6.069z" fill="#ffa817"/></g></svg>